<svg width="358" height="539" viewBox="0 0 358 539" fill="none" xmlns="http://www.w3.org/2000/svg">
<path d="M179 477.5C149.333 477.5 122.667 469.833 99 454.5C75.6667 438.833 57.5 417.167 44.5 389.5C31.5 361.5 25 330 25 295C25 259.667 31.5 228.167 44.5 200.5C57.5 172.833 75.6667 151.333 99 136C122.667 120.333 149.333 112.5 179 112.5C208.667 112.5 235.167 120.333 258.5 136C281.833 151.333 300 172.833 313 200.5C326 228.167 332.5 259.667 332.5 295C332.5 330 326 361.5 313 389.5C300 417.167 281.833 438.833 258.5 454.5C235.167 469.833 208.667 477.5 179 477.5ZM179 425C197.667 425 214.167 419.667 228.5 409C242.833 398 254 382.667 262 363C270 343.333 274 320.667 274 295C274 269.333 270 246.667 262 227C254 207.333 242.833 192.167 228.5 181.5C214.167 170.5 197.667 165 179 165C160.333 165 143.833 170.5 129.5 181.5C115.167 192.167 104 207.333 96 227C88 246.667 84 269.333 84 295C84 320.667 88 343.333 96 363C104 382.667 115.167 398 129.5 409C143.833 419.667 160.333 425 179 425Z" fill="#F5F5F5"/>
<path d="M97.5 391.5C101.167 381.5 122.1 357 172.5 347C222.9 337 252.667 269.5 260 239.5" stroke="#F5F5F5" stroke-width="4" stroke-linecap="round"/>
<path d="M153.5 169.5C156.167 224.833 175.5 305.4 217.5 183" stroke="#F5F5F5" stroke-width="4" stroke-linecap="round"/>
<path d="M167.5 169C173.833 203.5 190.1 253.2 204.5 176" stroke="#F5F5F5" stroke-width="4" stroke-linecap="round"/>
<path d="M121.5 183.5C137.333 208 155.9 286.5 97.5 390.5" stroke="#F5F5F5" stroke-width="4" stroke-linecap="round"/>
<path d="M106.5 195C120.667 232.5 137.8 322.6 89 373" stroke="#F5F5F5" stroke-width="4" stroke-linecap="round"/>
<path d="M86 223.5C96 254.5 124 318 75.5 343" stroke="#F5F5F5" stroke-width="4" stroke-linecap="round"/>
<path d="M143.5 172C144.167 256 162 379.7 226 190.5" stroke="#F5F5F5" stroke-width="4" stroke-linecap="round"/>
<path d="M264.5 324C232.833 336.833 171.9 375.7 181.5 428.5" stroke="#F5F5F5" stroke-width="4" stroke-linecap="round"/>
<path d="M256.5 364C232 364.167 184.6 376.5 203 422.5" stroke="#F5F5F5" stroke-width="4" stroke-linecap="round"/>
<path d="M248 384.5C234.167 382.833 204.5 387.5 216.5 415.5" stroke="#F5F5F5" stroke-width="4" stroke-linecap="round"/>
<path d="M137.5 428C122.5 406 138.6 390.2 177 361C225 324.5 252 326.5 266.5 272" stroke="#F5F5F5" stroke-width="4" stroke-linecap="round"/>
</svg>
