<svg width="1440" height="6863" viewBox="0 0 1440 6863" fill="none" xmlns="http://www.w3.org/2000/svg">
<path d="M98.2499 1C131 174.257 114.625 416.818 0 520.772" stroke="#F1DED0" stroke-opacity="0.29" stroke-width="0.5" stroke-linecap="round"/>
<path d="M229.25 1C289.291 260.886 327.5 843.031 0 1092.52" stroke="#F1DED0" stroke-opacity="0.29" stroke-width="0.5" stroke-linecap="round"/>
<path d="M556.75 1C529.458 451.469 383.175 1362.8 16.3751 1404.39" stroke="#F1DED0" stroke-opacity="0.29" stroke-width="0.5" stroke-linecap="round"/>
<path d="M802.375 1C758.708 486.121 540.375 1529.13 16.3751 1820.2" stroke="#F1DED0" stroke-opacity="0.29" stroke-width="0.5" stroke-linecap="round"/>
<path d="M1097.12 1C933.374 590.075 582.95 1768.23 491.25 1768.23C399.55 1768.23 125.542 2773.12 0 3275.56" stroke="#F1DED0" stroke-opacity="0.29" stroke-width="0.5" stroke-linecap="round"/>
<path d="M1424.62 1C605.875 1577.64 -697.574 5157.14 638.625 6861.99" stroke="#F1DED0" stroke-opacity="0.29" stroke-width="0.5" stroke-linecap="round"/>
<path d="M0 6134.31C27.2916 6359.54 111.35 6820.41 229.25 6861.99" stroke="#F1DED0" stroke-opacity="0.29" stroke-width="0.5" stroke-linecap="round"/>
<path d="M1441 624.73C753.251 2062.77 -212.874 4564.6 1424.63 3067.66" stroke="#F1DED0" stroke-opacity="0.29" stroke-width="0.5" stroke-linecap="round"/>
<path d="M1424.63 1144.51C1037.08 1958.82 343.875 3847.32 1424.63 2651.85" stroke="#F1DED0" stroke-opacity="0.29" stroke-width="0.5" stroke-linecap="round"/>
<path d="M1424.62 3431.5C764.166 3674.06 -16.3746 4782.9 851.499 6861.99" stroke="#F1DED0" stroke-opacity="0.29" stroke-width="0.5" stroke-linecap="round"/>
<path d="M1441 4055.23C1015.25 4211.16 212.875 4367.09 949.75 6810.02" stroke="#F1DED0" stroke-opacity="0.29" stroke-width="0.5" stroke-linecap="round"/>
<path d="M1424.62 4678.96C1108.04 4730.93 491.249 4419.07 1048 6862" stroke="#F1DED0" stroke-opacity="0.29" stroke-width="0.5" stroke-linecap="round"/>
<path d="M1424.62 5146.74C1217.21 5268.02 785.999 4730.93 1162.62 6861.99" stroke="#F1DED0" stroke-opacity="0.29" stroke-width="0.5" stroke-linecap="round"/>
<path d="M1441 5677.38C1302.22 5771.4 1042 5056.87 1267.52 6861.99" stroke="#F1DED0" stroke-opacity="0.29" stroke-width="0.5" stroke-linecap="round"/>
<path d="M1391.87 6861.99H1424.62" stroke="#F1DED0" stroke-opacity="0.29" stroke-width="0.5" stroke-linecap="round"/>
</svg>
